#!OML:ASF X:\für Bonn\!DataBase\2005_08_10_Bjorn_Final\c3d\bjorn.ASF
:FULLY-SPECIFIED
:DEGREES
271
root 5.15031 18.8122 -0.117485 197.427 -264.744 -525.92
lowerback 4.22793 2.62948 1.15601
upperback 5.04706 3.65136 -0.246438
thorax 2.91693 1.91889 -0.952064
lowerneck -6.96188 -0.0411655 2.59851
upperneck 6.69473 0.272667 -6.73723
head 3.45788 -0.0499411 -2.70243
rclavicle -3.30976e-014 2.78299e-015
rhumerus -26.7765 -11.2923 -78.6041
rradius 24.6623
rwrist 4.91406
rhand -12.7524 12.926
rfingers 7.12502
rthumb 13.3319 -16.6275
lclavicle -3.30976e-014 2.78299e-015
lhumerus -54.7187 -41.4643 99.8344
lradius 44.2208
lwrist -7.02865
lhand -8.58947 -5.73615
lfingers 7.12502
lthumb 17.3416 23.5102
rfemur -18.3027 -7.81494 13.8356
rtibia 43.652
rfoot -12.3072 25.6706
rtoes 13.8777
lfemur -19.5258 13.6869 -19.1304
ltibia 45.4931
lfoot -18.3223 -2.16551
ltoes -22.5979
272
root 5.16858 18.898 -0.108663 198.11 -264.815 -525.293
lowerback 3.89542 2.62201 1.03638
upperback 4.92045 3.63186 -0.362933
thorax 2.97085 1.90379 -0.991348
lowerneck -6.33651 -0.0675196 2.6275
upperneck 6.14508 0.202817 -6.65381
head 3.14231 -0.0651289 -2.66292
rclavicle 8.24956e-015 -1.78906e-014
rhumerus -27.3683 -10.8353 -78.7255
rradius 24.7512
rwrist 4.55933
rhand -12.4768 12.6328
rfingers 7.12502
rthumb 13.5975 -16.9032
lclavicle 8.24956e-015 -1.78906e-014
lhumerus -55.0645 -41.5121 99.9572
lradius 44.4435
lwrist -6.91945
lhand -8.27305 -5.71979
lfingers 7.12502
lthumb 17.6461 23.4995
rfemur -17.5848 -8.12147 13.7951
rtibia 42.2989
rfoot -11.154 25.5552
rtoes 14.3947
lfemur -18.7152 13.8155 -19.113
ltibia 43.9401
lfoot -17.7032 -2.34956
ltoes -22.308
273
root 5.18762 18.9777 -0.101127 198.894 -264.903 -524.584
lowerback 3.52002 2.62122 0.949277
upperback 4.80365 3.62332 -0.498096
thorax 3.06289 1.89597 -1.0654
lowerneck -5.66046 -0.0998295 2.59684
upperneck 5.49601 0.115354 -6.41943
head 2.78472 -0.0848091 -2.56005
rclavicle 3.47873e-014 -1.2921e-014
rhumerus -27.9709 -10.4689 -78.8602
rradius 24.8807
rwrist 4.23212
rhand -12.2016 12.3724
rfingers 7.12502
rthumb 13.8627 -17.1456
lclavicle 3.47873e-014 -1.2921e-014
lhumerus -55.3284 -41.5926 100.01
lradius 44.6545
lwrist -6.8103
lhand -7.87894 -5.75806
lfingers 7.12502
lthumb 18.0253 23.4267
rfemur -16.9563 -8.48184 13.7471
rtibia 41.0719
rfoot -10.0414 25.4881
rtoes 14.7726
lfemur -17.9637 13.9277 -19.1008
ltibia 42.4633
lfoot -17.0925 -2.55692
ltoes -22.062
274
root 5.20577 19.0484 -0.0931246 199.793 -264.998 -523.789
lowerback 3.12903 2.60915 0.840271
upperback 4.6727 3.5997 -0.620652
thorax 3.14659 1.87934 -1.11411
lowerneck -5.00767 -0.122599 2.45919
upperneck 4.86667 0.0467796 -6.08815
head 2.44311 -0.0963633 -2.40675
rclavicle 1.69961e-014 8.54774e-015
rhumerus -28.5948 -10.05 -78.9955
rradius 25.0496
rwrist 3.95581
rhand -11.9319 12.0635
rfingers 7.12502
rthumb 14.1226 -17.4366
lclavicle 1.69961e-014 8.54774e-015
lhumerus -55.5236 -41.6639 100.061
lradius 44.8271
lwrist -6.73775
lhand -7.53683 -5.78139
lfingers 7.12502
lthumb 18.3545 23.3727
rfemur -16.4186 -8.84284 13.7005
rtibia 39.9647
rfoot -9.06445 25.4162
rtoes 14.8268
lfemur -17.2961 14.0256 -19.0999
ltibia 41.0681
lfoot -16.4929 -2.78305
ltoes -21.887
275
root 5.22295 19.1111 -0.0856809 200.403 -265.119 -523.304
lowerback 2.7228 2.61244 0.789809
upperback 4.55272 3.59895 -0.752666
thorax 3.25555 1.87666 -1.20401
lowerneck -4.52487 -0.16766 2.47782
upperneck 4.39082 -0.0467634 -5.88228
head 2.18985 -0.126145 -2.33159
rclavicle 4.09993e-014 -9.54166e-015
rhumerus -29.2102 -9.67287 -79.1524
rradius 25.2737
rwrist 3.60381
rhand -11.6763 11.8157
rfingers 7.12502
rthumb 14.3689 -17.667
lclavicle 4.09993e-014 -9.54166e-015
lhumerus -55.6676 -41.8602 100.108
lradius 45.0015
lwrist -6.56239
lhand -7.21678 -5.77389
lfingers 7.12502
lthumb 18.6623 23.3509
rfemur -15.965 -9.18789 13.6949
rtibia 38.9702
rfoot -8.17959 25.3936
rtoes 14.8109
lfemur -16.6997 14.1163 -19.0594
ltibia 39.7616
lfoot -15.9251 -3.09087
ltoes -21.6242
276
root 5.24149 19.1675 -0.0802467 201.282 -265.239 -522.559
lowerback 2.321 2.60037 0.712943
upperback 4.40648 3.57692 -0.860941
thorax 3.33111 1.86146 -1.25624
lowerneck -4.09443 -0.212731 2.48069
upperneck 4.06519 -0.125388 -5.75185
head 1.99947 -0.153179 -2.2817
rclavicle 3.28243e-014 -6.36111e-015
rhumerus -29.8533 -9.28429 -79.2587
rradius 25.5039
rwrist 3.34541
rhand -11.4165 11.639
rfingers 7.12502
rthumb 14.6193 -17.8257
lclavicle 3.28243e-014 -6.36111e-015
lhumerus -55.8434 -41.9553 100.167
lradius 45.1846
lwrist -6.42712
lhand -6.89527 -5.84465
lfingers 7.12502
lthumb 18.9715 23.2501
rfemur -15.573 -9.54777 13.6568
rtibia 38.0756
rfoot -7.35184 25.4209
rtoes 14.914
lfemur -16.1569 14.1492 -19.0463
ltibia 38.5612
lfoot -15.4172 -3.43584
ltoes -21.3192
